<?xml version="1.0" standalone="no"?>
<!DOCTYPE svg PUBLIC "-//W3C//DTD SVG 20010904//EN"
 "http://www.w3.org/TR/2001/REC-SVG-20010904/DTD/svg10.dtd">
<svg version="1.0" xmlns="http://www.w3.org/2000/svg"
 width="200.000000pt" height="200.000000pt" viewBox="0 0 200.000000 200.000000"
 preserveAspectRatio="xMidYMid meet">
<metadata>
Created by potrace 1.11, written by Peter Selinger 2001-2013
</metadata>
<g transform="translate(0.000000,200.000000) scale(0.100000,-0.100000)"
fill="#000000" stroke="none">
<path d="M899 1891 c-76 -25 -138 -86 -168 -165 -20 -54 -40 -171 -35 -210 1
-11 5 -43 8 -71 16 -122 3 -259 -27 -283 -6 -5 -27 -13 -46 -17 -47 -10 -112
-79 -141 -148 l-24 -57 -61 0 c-69 0 -106 -23 -104 -63 l2 -22 4 22 c10 54 -5
53 691 53 436 0 650 -3 663 -11 11 -6 24 -20 29 -32 7 -17 9 -18 9 -4 2 37
-35 57 -102 57 l-63 0 -24 57 c-30 72 -93 137 -146 149 -30 7 -43 17 -57 44
-19 36 -19 48 -5 340 2 52 -12 139 -32 191 -24 65 -65 115 -119 147 -38 22
-58 27 -136 29 -49 1 -102 -1 -116 -6z m155 -311 c109 -57 156 -76 163 -69 6
6 16 8 23 4 16 -10 4 -77 -18 -95 -10 -8 -28 -35 -40 -60 -47 -98 -136 -159
-211 -144 -43 9 -111 72 -145 134 -16 29 -37 61 -47 71 -18 18 -21 29 -21 64
0 35 2 46 11 41 4 -3 14 13 20 36 15 49 61 98 91 98 11 0 90 -36 174 -80z
m-136 -394 c67 -34 135 -27 200 21 24 18 32 20 32 9 0 -8 12 -23 27 -34 l27
-19 -27 -27 c-41 -41 -114 -69 -177 -69 -64 0 -158 38 -183 73 -15 22 -15 24
9 42 13 11 24 27 24 35 0 15 2 15 18 1 9 -9 32 -23 50 -32z"/>
<path d="M1647 671 c-4 -17 -3 -21 5 -13 5 5 8 16 6 23 -3 8 -7 3 -11 -10z"/>
<path d="M1636 615 c-9 -26 -7 -32 5 -12 6 10 9 21 6 23 -2 3 -7 -2 -11 -11z"/>
<path d="M976 575 c-15 -16 -11 -44 8 -57 13 -8 42 7 49 26 6 15 -16 46 -33
46 -5 0 -15 -7 -24 -15z"/>
<path d="M1626 563 c-6 -14 -5 -15 5 -6 7 7 10 15 7 18 -3 3 -9 -2 -12 -12z"/>
<path d="M367 549 c4 -13 8 -18 11 -10 2 7 -1 18 -6 23 -8 8 -9 4 -5 -13z"/>
<path d="M1608 487 c-3 -19 -2 -25 4 -19 6 6 8 18 6 28 -3 14 -5 12 -10 -9z"/>
<path d="M382 485 c0 -11 3 -29 8 -40 11 -25 11 1 0 35 -6 20 -8 21 -8 5z"/>
<path d="M400 408 c0 -5 26 -133 35 -173 5 -25 18 -44 33 -51 20 -9 482 -13
482 -4 0 3 -106 6 -235 6 -195 0 -238 2 -250 15 -8 8 -24 57 -36 109 -17 80
-29 120 -29 98z"/>
<path d="M1585 368 c-3 -7 -11 -44 -19 -82 -8 -37 -21 -75 -30 -84 -13 -14
-54 -16 -290 -16 -151 -1 -277 -4 -280 -7 -3 -3 122 -5 279 -5 239 1 287 3
299 16 13 13 59 190 49 190 -2 0 -6 -6 -8 -12z"/>
<path d="M420 145 c-6 -7 -8 -20 -4 -29 6 -14 60 -16 584 -16 524 0 578 2 584
16 16 42 11 42 -584 42 -450 0 -571 -3 -580 -13z"/>
</g>
</svg>
